HIERARCHY
ROOT Hips
{
	OFFSET 0.000000 0.000000 0.000000
	CHANNELS 6 Xposition Yposition Zposition Zrotation Xrotation Yrotation
	JOINT RightUpLeg
	{
		OFFSET -10.795800 0.000000 0.000000
		CHANNELS 3 Zrotation Xrotation Yrotation
		JOINT RightLeg
		{
			OFFSET 0.000000 -39.557900 0.000000
			CHANNELS 3 Zrotation Xrotation Yrotation
			JOINT RightFoot
			{
				OFFSET 0.000000 -40.613400 0.000000
				CHANNELS 3 Zrotation Xrotation Yrotation
				JOINT RightToe
				{
					OFFSET 0.000000 -1.003500 12.392200
					CHANNELS 3 Zrotation Xrotation Yrotation
					JOINT RightToeEnd
					{
						OFFSET 0.000000 1.088300 5.767000
						CHANNELS 3 Zrotation Xrotation Yrotation
						End Site
						{
						    OFFSET 0.000000 0.927200 4.913300
						}
					}
				}
			}
		}
	}
	JOINT LeftUpLeg
	{
		OFFSET 10.795800 0.000000 0.000000
		CHANNELS 3 Zrotation Xrotation Yrotation
		JOINT LeftLeg
		{
			OFFSET 0.000000 -39.557900 0.000000
			CHANNELS 3 Zrotation Xrotation Yrotation
			JOINT LeftFoot
			{
				OFFSET 0.000000 -40.613400 0.000000
				CHANNELS 3 Zrotation Xrotation Yrotation
				JOINT LeftToe
				{
					OFFSET 0.000000 -1.003500 12.392200
					CHANNELS 3 Zrotation Xrotation Yrotation
					JOINT LeftToeEnd
					{
						OFFSET 0.000000 1.088300 5.767000
						CHANNELS 3 Zrotation Xrotation Yrotation
						End Site
						{
						    OFFSET 0.000000 0.927200 4.913300
						}
					}
				}
			}
		}
	}
	JOINT Spine
	{
		OFFSET 0.000000 15.108100 0.000000
		CHANNELS 3 Zrotation Xrotation Yrotation
		JOINT Spine1
		{
			OFFSET 0.000000 12.828000 0.000000
			CHANNELS 3 Zrotation Xrotation Yrotation
			JOINT Spine2
			{
				OFFSET 0.000000 11.155500 0.000000
				CHANNELS 3 Zrotation Xrotation Yrotation
				JOINT LeftShoulder
				{
					OFFSET 2.000000 11.155500 0.000000
					CHANNELS 3 Zrotation Xrotation Yrotation
					JOINT LeftArm
					{
						OFFSET 15.139800 0.000000 0.000000
						CHANNELS 3 Zrotation Xrotation Yrotation
						JOINT LeftForeArm
						{
							OFFSET 0.000000 -26.627300 0.000000
							CHANNELS 3 Zrotation Xrotation Yrotation
							JOINT LeftHand
							{
								OFFSET 0.000000 -24.932400 0.000000
								CHANNELS 3 Zrotation Xrotation Yrotation
								JOINT LeftFinger0
								{
									OFFSET 0.000000 -8.640100 0.000000
									CHANNELS 3 Zrotation Xrotation Yrotation
									End Site
									{
									    OFFSET 0.000000 -5.000000 0.000000
									}
								}
							}
						}
					}
				}
				JOINT RightShoulder
				{
					OFFSET -2.000000 11.155500 0.000000
					CHANNELS 3 Zrotation Xrotation Yrotation
					JOINT RightArm
					{
						OFFSET -15.139800 0.000000 0.000000
						CHANNELS 3 Zrotation Xrotation Yrotation
						JOINT RightForeArm
						{
							OFFSET 0.000000 -26.627300 0.000000
							CHANNELS 3 Zrotation Xrotation Yrotation
							JOINT RightHand
							{
								OFFSET 0.000000 -24.932400 0.000000
								CHANNELS 3 Zrotation Xrotation Yrotation
								JOINT RightFinger0
								{
									OFFSET 0.000000 -8.640100 0.000000
									CHANNELS 3 Zrotation Xrotation Yrotation
									End Site
									{
									    OFFSET 0.000000 -5.000000 0.000000
									}
								}
							}
						}
					}
				}
				JOINT Neck
				{
					OFFSET 0.000000 11.155500 0.000000
					CHANNELS 3 Zrotation Xrotation Yrotation
					JOINT Head
					{
						OFFSET 0.000000 10.940000 0.000000
						CHANNELS 3 Zrotation Xrotation Yrotation
						JOINT HeadTip
						{
							OFFSET 0.000000 10.000000 0.000000
							CHANNELS 3 Zrotation Xrotation Yrotation
							End Site
							{
							    OFFSET 0.000000 5.000000 0.000000
							}
						}
					}
				}
			}
		}
	}
}
MOTION
Frames:	12
Frame Time:	0.033332
70.660300 86.671900 -24.554100 -0.597877 -1.839494 0.167980 0.232644 -0.921175 -3.624903 -0.000000 7.518535 -0.000000 10.399973 4.968463 -17.242889 -0.000000 0.755067 0.000000 0.000000 0.000000 0.000000 -0.557312 -1.123357 1.133458 0.000000 6.998384 -0.000000 -7.763883 9.072140 19.766417 -0.000000 -8.360499 0.000000 -0.000000 0.000000 -0.000000 -1.527652 3.363504 -0.828945 0.000000 -2.048861 -0.000000 0.000000 0.000000 0.000000 4.368725 -0.000000 5.366609 74.143141 -11.160430 23.130398 -0.000000 -22.432859 -0.000000 -7.277501 12.494688 -34.854747 -0.000000 -0.000000 -0.000000 -5.016141 0.000000 -7.427088 -70.134744 -10.532825 -25.156547 -0.000043 -15.621406 -0.000006 1.867322 6.419862 14.050500 0.000000 0.000000 0.000000 0.000000 0.000000 0.000000 4.285058 5.813781 -0.263810 0.000000 0.000000 -0.000000 
70.656900 86.670400 -24.545300 -0.601539 -1.839381 0.168815 0.238109 -0.916518 -3.628289 -0.000000 7.524245 -0.000000 10.440093 4.953544 -17.238686 0.000000 0.737284 0.000000 -0.000000 0.000000 -0.000000 -0.550562 -1.121090 1.128914 0.000000 7.004643 -0.000000 -7.774460 9.052693 19.773442 0.000000 -8.323566 0.000000 0.000000 0.000000 -0.000000 -1.540384 3.348565 -0.841461 0.000000 -2.023883 0.000000 -0.000000 -0.000000 0.000000 4.380282 -0.000000 5.390651 74.128211 -11.156638 23.109500 -0.000000 -22.424986 -0.000000 -7.359422 12.510560 -34.865196 -0.000000 0.000000 -0.000000 -4.966980 -0.000000 -7.486547 -70.109779 -10.563880 -25.294044 -0.000043 -15.675701 -0.000006 1.905084 6.413434 14.202233 0.000000 0.000000 -0.000000 -0.000000 -0.000000 0.000000 4.319439 5.837535 -0.251628 0.000000 0.000000 -0.000000 
70.651100 86.667700 -24.532000 -0.601853 -1.856090 0.178983 0.244925 -0.884108 -3.644104 -0.000000 7.513466 0.000000 10.455134 4.934982 -17.250047 -0.000000 0.725665 0.000000 -0.000000 0.000000 -0.000000 -0.546865 -1.102391 1.115916 -0.000000 7.017313 -0.000000 -7.768021 9.035381 19.766952 -0.000000 -8.403662 -0.000000 0.000000 0.000000 -0.000000 -1.565151 3.334155 -0.879012 0.000000 -1.981899 0.000000 -0.000000 0.000000 -0.000000 4.400861 0.000000 5.419908 74.115314 -11.140106 23.041196 0.000000 -22.457974 -0.000000 -7.388673 12.489395 -34.754960 -0.000000 -0.000000 -0.000000 -4.885084 0.000000 -7.519611 -70.119588 -10.553805 -25.283850 -0.000043 -15.758201 -0.000006 1.927011 6.357679 14.117117 0.000000 -0.000000 0.000000 -0.000000 0.000000 -0.000000 4.377679 5.872821 -0.242728 0.000000 0.000000 -0.000000 
70.646200 86.665700 -24.518500 -0.603778 -1.869206 0.173285 0.248004 -0.872792 -3.614726 0.000000 7.538697 0.000000 10.460087 4.911718 -17.248093 0.000000 0.765683 -0.000000 0.000000 0.000000 0.000000 -0.541570 -1.077767 1.124303 0.000000 7.018354 -0.000000 -7.751067 9.030679 19.755584 -0.000000 -8.368910 -0.000000 0.000000 0.000000 -0.000000 -1.588280 3.326731 -0.901929 -0.000000 -1.956353 -0.000000 -0.000000 -0.000000 -0.000000 4.421054 -0.000000 5.470849 74.066426 -11.179015 23.142363 -0.000000 -22.483377 -0.000000 -7.328028 12.497210 -34.892354 -0.000000 0.000000 -0.000000 -4.837764 0.000000 -7.546742 -70.101137 -10.553043 -25.389703 -0.000043 -15.813840 -0.000006 2.046618 6.431066 14.111640 0.000000 -0.000000 -0.000000 -0.000000 -0.000000 -0.000000 4.440529 5.899353 -0.239713 0.000000 0.000000 -0.000000 
70.646000 86.663900 -24.507500 -0.603981 -1.876120 0.153649 0.243871 -0.861901 -3.613498 -0.000000 7.542618 0.000000 10.473511 4.902812 -17.213553 0.000000 0.736970 0.000000 0.000000 0.000000 -0.000000 -0.543291 -1.061041 1.154217 -0.000000 7.015969 0.000000 -7.744266 9.012131 19.768501 -0.000000 -8.360145 -0.000000 -0.000000 -0.000000 -0.000000 -1.603061 3.303851 -0.910656 -0.000000 -1.928683 -0.000000 -0.000000 0.000000 0.000000 4.410563 0.000000 5.484604 74.048727 -11.191393 23.258323 -0.000000 -22.488713 -0.000000 -7.294200 12.544453 -34.799995 -0.000000 0.000000 -0.000000 -4.802011 -0.000000 -7.558451 -70.119947 -10.546906 -25.333281 -0.000043 -15.794128 -0.000006 2.077726 6.450237 14.080970 0.000000 -0.000000 0.000000 -0.000000 0.000000 0.000000 4.478538 5.953920 -0.249673 -0.000000 0.000000 -0.000000 
70.643700 86.661800 -24.495800 -0.608395 -1.884999 0.138609 0.256007 -0.840755 -3.613360 0.000000 7.524106 -0.000000 10.432211 4.896547 -17.230415 0.000000 0.762223 -0.000000 -0.000000 -0.000000 -0.000000 -0.536879 -1.042287 1.164702 -0.000000 7.019132 -0.000000 -7.748985 8.989374 19.758620 -0.000000 -8.366283 -0.000000 -0.000000 -0.000000 -0.000000 -1.614758 3.280224 -0.923363 -0.000000 -1.888540 -0.000000 0.000000 0.000000 -0.000000 4.403148 -0.000000 5.503205 74.041727 -11.167167 23.263577 -0.000000 -22.514711 -0.000000 -7.294468 12.444147 -34.818885 -0.000000 -0.000000 -0.000000 -4.774640 -0.000000 -7.586780 -70.146278 -10.576835 -25.365393 -0.000043 -15.758095 -0.000006 2.006822 6.478767 14.169074 -0.000000 -0.000000 -0.000000 0.000000 0.000000 -0.000000 4.511216 5.980479 -0.266360 0.000000 -0.000000 -0.000000 
70.646600 86.659300 -24.487100 -0.604875 -1.897965 0.104538 0.251202 -0.831406 -3.583336 -0.000000 7.531200 -0.000000 10.411866 4.879038 -17.224253 -0.000000 0.772019 -0.000000 -0.000000 0.000000 -0.000000 -0.540895 -1.024890 1.174059 -0.000000 7.030401 -0.000000 -7.759633 8.970845 19.772242 -0.000000 -8.336984 -0.000000 -0.000000 -0.000000 -0.000000 -1.626801 3.273194 -0.934161 0.000000 -1.853438 -0.000000 0.000000 -0.000000 -0.000000 4.391497 -0.000000 5.523764 74.020095 -11.137784 23.316910 -0.000000 -22.550885 -0.000000 -7.251982 12.438791 -34.890697 -0.000000 0.000000 -0.000000 -4.743376 -0.000000 -7.614213 -70.199807 -10.583094 -25.338230 -0.000043 -15.801830 -0.000006 1.996875 6.473785 14.113998 0.000000 0.000000 -0.000000 0.000000 -0.000000 -0.000000 4.512547 5.992521 -0.273522 -0.000000 -0.000000 0.000000 
70.649300 86.657300 -24.479600 -0.609418 -1.914388 0.081379 0.244899 -0.823640 -3.545436 0.000000 7.563355 -0.000000 10.463179 4.855172 -17.192133 0.000000 0.765679 -0.000000 0.000000 0.000000 0.000000 -0.543484 -0.996666 1.184590 0.000000 7.022953 -0.000000 -7.725322 8.960976 19.801137 -0.000000 -8.424045 -0.000000 0.000000 -0.000000 -0.000000 -1.636531 3.280858 -0.956376 -0.000000 -1.830081 -0.000000 -0.000000 0.000000 -0.000000 4.412130 0.000000 5.569017 73.972385 -11.171510 23.330620 0.000000 -22.552941 0.000000 -7.250541 12.555196 -34.921519 0.000000 0.000000 0.000000 -4.680327 0.000000 -7.658024 -70.292330 -10.605718 -25.333520 -0.000043 -15.864125 -0.000006 2.011186 6.439133 14.143745 0.000000 0.000000 0.000000 -0.000000 0.000000 -0.000000 4.557980 6.007813 -0.286625 -0.000000 0.000000 -0.000000 
70.658700 86.657100 -24.473300 -0.619164 -1.899792 0.053206 0.253545 -0.830985 -3.564201 -0.000000 7.550333 -0.000000 10.462443 4.877711 -17.188119 0.000000 0.745729 -0.000000 0.000000 -0.000000 -0.000000 -0.540690 -0.999636 1.193993 -0.000000 7.016154 -0.000000 -7.733497 8.951432 19.815000 0.000000 -8.382141 0.000000 0.000000 0.000000 -0.000000 -1.631127 3.239749 -0.965730 -0.000000 -1.814293 -0.000000 0.000000 0.000000 -0.000000 4.370921 -0.000000 5.594723 73.991734 -11.184946 23.321690 -0.000000 -22.525555 0.000000 -7.299501 12.514694 -34.911812 -0.000000 -0.000000 -0.000000 -4.707735 -0.000000 -7.670484 -70.265260 -10.551003 -25.361660 -0.000044 -15.981090 -0.000006 2.028687 6.463963 14.214501 0.000000 0.000000 -0.000000 0.000000 0.000000 -0.000000 4.593562 6.071689 -0.286560 -0.000000 -0.000000 -0.000000 
70.664000 86.655700 -24.464000 -0.612027 -1.911008 0.027825 0.237931 -0.809306 -3.535789 0.000000 7.540809 0.000000 10.466586 4.872451 -17.166541 0.000000 0.749421 0.000000 0.000000 -0.000000 -0.000000 -0.547938 -0.971269 1.188258 0.000000 7.005123 -0.000000 -7.780134 8.925389 19.842142 0.000000 -8.353496 -0.000000 0.000000 0.000000 -0.000000 -1.656964 3.225187 -0.985212 0.000000 -1.805018 0.000000 0.000000 0.000000 -0.000000 4.345766 -0.000000 5.596169 74.010176 -11.127249 23.258829 -0.000000 -22.567646 -0.000000 -7.244258 12.457953 -34.820275 0.000000 0.000000 0.000000 -4.707785 0.000000 -7.690979 -70.270905 -10.565350 -25.424710 -0.000044 -15.980602 -0.000006 2.062538 6.437666 14.276536 -0.000000 0.000000 0.000000 0.000000 0.000000 -0.000000 4.634034 6.145943 -0.285457 0.000000 0.000000 -0.000000 
70.667200 86.652700 -24.455000 -0.617963 -1.933794 0.018797 0.249164 -0.777659 -3.534356 0.000000 7.526675 -0.000000 10.490683 4.860736 -17.199497 -0.000000 0.687467 -0.000000 -0.000000 -0.000000 0.000000 -0.548198 -0.949534 1.223588 -0.000000 7.017539 -0.000000 -7.713958 8.922610 19.822218 -0.000000 -8.373768 -0.000000 -0.000000 0.000000 0.000000 -1.664099 3.218715 -1.029079 0.000000 -1.776051 -0.000000 -0.000000 0.000000 -0.000000 4.346633 0.000000 5.654697 73.973799 -11.149240 23.294148 0.000000 -22.619305 -0.000000 -7.293589 12.467817 -34.898448 -0.000000 0.000000 0.000000 -4.707503 0.000000 -7.735359 -70.289371 -10.621538 -25.522600 -0.000044 -15.987683 -0.000006 2.119184 6.470459 14.224099 -0.000000 0.000000 -0.000000 -0.000000 0.000000 -0.000000 4.617250 6.196073 -0.323874 -0.000000 0.000000 -0.000000 
70.671700 86.650500 -24.443500 -0.628402 -1.958888 -0.007092 0.257066 -0.751581 -3.505924 -0.000000 7.532193 -0.000000 10.437787 4.865726 -17.190068 0.000000 0.755085 -0.000000 -0.000000 0.000000 -0.000000 -0.542180 -0.913979 1.228407 0.000000 7.022204 -0.000000 -7.716125 8.892029 19.838004 0.000000 -8.374940 -0.000000 0.000000 0.000000 -0.000000 -1.668735 3.206863 -1.050215 0.000000 -1.750086 0.000000 0.000000 0.000000 -0.000000 4.355197 -0.000000 5.721775 73.946560 -11.229227 23.219543 0.000000 -22.612586 0.000000 -7.317682 12.562598 -34.782309 -0.000000 0.000000 -0.000000 -4.693528 -0.000000 -7.742226 -70.321898 -10.619591 -25.732383 -0.000044 -16.015112 -0.000006 2.290473 6.599993 14.182986 0.000000 -0.000000 -0.000000 0.000000 0.000000 -0.000000 4.609537 6.245984 -0.367279 -0.000000 0.000000 -0.000000 
